<?xml version="1.0" encoding="UTF-8"?><svg id="Layer_1" xmlns="http://www.w3.org/2000/svg" width="560.493" height="106.238" viewBox="0 0 560.493 106.238"><defs><style>.cls-1{fill:#fff;}</style></defs><path class="cls-1" d="M40.264,43.494c-.001-1.836-.757-3.571-2.128-4.883-1.416-1.356-3.311-2.102-5.332-2.102-4.114,0-7.462,3.138-7.462,7.003l-.021,5.671s.021,12.814.021,13.091v.021c.002,3.853,3.349,6.987,7.462,6.987s7.456-3.131,7.46-6.984c-.002-.086-.018-.558-.018-.558v-17.659s.015-.504.018-.588ZM38.49,62.303c-.007,2.871-2.555,5.206-5.686,5.206s-5.687-2.339-5.688-5.215l-.021-13.087.021-5.689c0-2.89,2.551-5.235,5.688-5.235,1.564,0,3.022.571,4.105,1.61,1.017.972,1.579,2.251,1.582,3.596-.003.086-.019.565-.019.565v17.717s.015.446.018.533Z"/><path class="cls-1" d="M327.349,54.81h-11.418c-3.918,0-10.474,0-10.474,7.208,0,2.907-2.551,5.273-5.688,5.273-2.846,0-5.189-1.934-5.602-4.44,1.957-.935,18.896-9.032,18.896-9.032l.802-.396c2.211-1.066,7.417-3.578,7.417-10.163,0-11.477-9.648-20.815-21.508-20.815s-21.522,9.337-21.522,20.815c0,0-.005,8.99-.009,11.661h-6.676v-11.617c0-11.5-9.66-20.858-21.534-20.858-2.873,0-5.779.634-8.499,1.777-1.429-1.245-3.23-1.967-5.141-1.967-4.369,0-7.924,3.554-7.924,7.923v1.32s.001,23.423.001,23.423h-6.675v-24.743c0-4.369-3.554-7.923-7.924-7.923s-7.923,3.554-7.923,7.923c0,0,0,18.808.001,24.743h-7.04V7.923c0-2.116-.824-4.106-2.321-5.602-1.496-1.498-3.486-2.321-5.602-2.321-4.369,0-7.923,3.553-7.923,7.923v.003s.001,46.994.001,46.994h-12.967c-4.172,0-10.475,0-10.475,7.153,0,1.368-.578,2.663-1.627,3.646-1.08,1.014-2.524,1.571-4.061,1.571-2.847,0-5.189-1.934-5.601-4.44,1.956-.936,18.885-9.033,18.885-9.033l.8-.392c2.212-1.067,7.42-3.578,7.42-10.166,0-11.477-9.645-20.815-21.499-20.815s-21.521,9.337-21.522,20.815c0,0-.007,8.99-.01,11.661h-6.622v-10.702c.002-.058.03-.903.03-.903v-.056c0-11.477-9.648-20.815-21.508-20.815-3.083,0-6.185.727-9.066,2.043-1.34-.981-2.931-1.531-4.611-1.531-4.369,0-7.923,3.554-7.923,7.923v23.931h-5.909v-24.874c0-3.981-3.481-7.099-7.923-7.099s-7.923,3.118-7.923,7.099v24.874h-6.663v-10.592c.002-.048.029-.903.029-.903v-.056c0-11.477-9.648-20.815-21.507-20.815-3.057,0-6.136.717-9.001,2.012-1.334-.96-2.909-1.5-4.567-1.5-4.369,0-7.923,3.554-7.923,7.923v11.748s.024-.023.024-.024c-.029.227-.035.43-.04.565,0,.018-.013,7.679-.02,11.221h-3.359c-2.116,0-4.107.824-5.604,2.321-1.495,1.496-2.32,3.486-2.32,5.602,0,4.369,3.554,7.923,7.923,7.923h3.394v28.077c0,2.119.825,4.11,2.322,5.606,1.496,1.495,3.486,2.319,5.601,2.319s4.106-.824,5.601-2.319c1.499-1.497,2.322-3.485,2.322-5.603v-15.734c1.851.497,3.74.765,5.645.765,8.651,0,16.435-5.054,19.778-12.69h8.363v5.344c0,4.37,3.554,7.926,7.923,7.926s7.923-3.554,7.923-7.922v-5.349h5.909v27.656c0,2.119.825,4.11,2.322,5.606,1.497,1.495,3.485,2.319,5.601,2.319s4.106-.824,5.602-2.319c1.496-1.497,2.321-3.485,2.321-5.603v-15.763c1.884.516,3.809.793,5.754.793,8.59,0,16.356-5.01,19.729-12.581h10.174c3.375,7.57,11.14,12.581,19.729,12.581s16.356-5.01,19.729-12.581h9.398v4.585c0,4.373,3.553,7.93,7.922,7.93s7.923-3.554,7.923-7.923v-4.592h7.04v5.85c0,4.373,3.554,7.931,7.922,7.931s7.924-3.555,7.924-7.924v-5.856h6.675v5.85c0,4.373,3.554,7.931,7.923,7.931s7.922-3.555,7.922-7.924v-33.328c.009-2.841,2.572-5.159,5.713-5.159s5.689,2.327,5.689,5.187l.004,33.325c0,4.369,3.554,7.923,7.923,7.923s7.923-3.554,7.923-7.923c0,0,0-3.62-.001-5.882h8.478c3.374,7.57,11.141,12.581,19.729,12.581,8.651,0,16.436-5.054,19.78-12.693h7.797c2.116,0,4.106-.824,5.602-2.321,1.496-1.495,2.319-3.485,2.319-5.6,0-4.37-3.553-7.924-7.922-7.924ZM331.698,67.081c-1.161,1.16-2.706,1.801-4.349,1.801h-8.982c-2.756,7.535-10.205,12.692-18.594,12.692-8.326,0-15.761-5.112-18.552-12.581h-11.428c.001,2.729.001,7.655.001,7.655,0,3.391-2.759,6.148-6.15,6.148s-6.15-2.758-6.15-6.148l-.003-33.325c0-3.838-3.348-6.959-7.464-6.959s-7.475,3.112-7.487,6.931v33.328c0,3.392-2.759,6.151-6.149,6.151s-6.151-2.762-6.151-6.157v-7.623h-10.221v7.63c0,3.392-2.759,6.151-6.151,6.151s-6.149-2.762-6.149-6.157v-7.623h-10.585v6.365c0,3.391-2.759,6.15-6.151,6.15s-6.149-2.762-6.149-6.156v-6.358h-12.347c-2.791,7.468-10.226,12.581-18.553,12.581s-15.76-5.112-18.552-12.581h-12.528c-2.791,7.468-10.224,12.581-18.552,12.581-2.591,0-5.144-.513-7.526-1.467v18.209c0,1.643-.641,3.188-1.802,4.349-1.161,1.16-2.706,1.801-4.348,1.801s-3.188-.641-4.349-1.801c-1.161-1.161-1.802-2.706-1.802-4.352v-29.43h-9.456v7.122c0,3.391-2.758,6.149-6.149,6.149s-6.151-2.761-6.151-6.153v-7.118h-11.321c-2.756,7.534-10.206,12.69-18.593,12.69-2.549,0-5.065-.498-7.418-1.424v18.167c0,1.643-.641,3.188-1.802,4.349-1.161,1.16-2.705,1.801-4.349,1.801s-3.186-.641-4.348-1.801c-1.161-1.161-1.802-2.706-1.802-4.352v-29.851h-5.167c-3.391,0-6.15-2.759-6.15-6.15,0-1.643.639-3.186,1.801-4.348,1.161-1.163,2.706-1.802,4.349-1.802h5.129c.007-3.892.023-12.917.023-12.95l.015-.586v-11.748c0-3.391,2.759-6.149,6.15-6.149,1.627,0,3.162.659,4.297,1.783,2.858-1.478,6.018-2.296,9.271-2.296,10.881,0,19.733,8.542,19.733,19.041v.027s-.026.849-.029.903v12.394h10.209v-26.648c0-2.986,2.701-5.326,6.151-5.326s6.149,2.339,6.149,5.326v26.648h9.456v-25.704c0-3.391,2.759-6.149,6.151-6.149,1.65,0,3.197.674,4.334,1.822,2.874-1.503,6.058-2.335,9.342-2.335,10.882,0,19.733,8.542,19.733,19.041v.027s-.026.85-.029.905v12.5h10.168c.003-2.766.012-13.433.012-13.433,0-10.5,8.859-19.041,19.748-19.041s19.726,8.542,19.726,19.041c0,5.476-4.351,7.573-6.43,8.575l-.781.383s-18.138,8.675-19.982,9.556c.001.067.003.234.003.234l-.002.066c.001,3.854,3.348,6.99,7.462,6.99s7.462-3.136,7.462-6.99c0-5.381,4.425-5.381,8.702-5.381h14.741V7.923c-.001-3.391,2.758-6.151,6.149-6.151,1.643,0,3.187.641,4.349,1.802,1.161,1.162,1.802,2.706,1.802,4.349v48.77h10.585v-26.515c0-3.391,2.759-6.149,6.149-6.149s6.151,2.757,6.151,6.149v26.515h10.221v-26.515c0-3.391,2.759-6.149,6.151-6.149,1.864,0,3.601.871,4.749,2.279,2.756-1.346,5.784-2.09,8.891-2.09,10.895,0,19.761,8.562,19.761,19.085v13.389h10.222c.002-2.766.011-13.433.011-13.433,0-10.5,8.86-19.041,19.748-19.041s19.733,8.542,19.733,19.041c0,5.473-4.348,7.57-6.424,8.573l-.784.386s-18.147,8.673-19.992,9.556c0,.066.002.234.002.234v.065c0,3.854,3.347,6.99,7.46,6.99s7.462-3.16,7.462-7.046c0-5.434,4.622-5.434,8.702-5.434h11.417c3.391,0,6.15,2.758,6.15,6.151,0,1.642-.639,3.185-1.801,4.348Z"/><path class="cls-1" d="M111.762,43.494c-.004-3.852-3.349-6.985-7.462-6.985s-7.46,3.138-7.46,7.003l-.022,5.671s.022,12.814.022,13.091v.021c.001,3.853,3.349,6.987,7.46,6.987s7.457-3.131,7.46-6.984c-.001-.087-.018-.558-.018-.558v-17.66s.016-.502.019-.587ZM109.987,62.304c-.008,2.87-2.557,5.205-5.687,5.205s-5.686-2.339-5.687-5.215l-.021-13.087.02-5.689c0-2.89,2.552-5.235,5.688-5.235s5.681,2.335,5.687,5.207c-.002.089-.018.563-.018.563v17.719s.015.447.018.533Z"/><path class="cls-1" d="M153.932,36.29c-4.115,0-7.462,3.139-7.462,7.003,0,0-.012,3.651-.018,4.855,1.072-.512,12.448-5.95,14.551-6.955-.958-2.867-3.795-4.904-7.071-4.904ZM148.237,45.331c.003-.988.008-2.037.008-2.037,0-2.884,2.552-5.23,5.688-5.23,1.885,0,3.627.908,4.662,2.316-2.314,1.106-9.103,4.352-10.358,4.951Z"/><path class="cls-1" d="M299.768,36.29c-4.115,0-7.462,3.139-7.462,7.003,0,0-.012,3.651-.018,4.855,3.47-1.658,12.663-6.053,14.551-6.955-.958-2.867-3.795-4.904-7.072-4.904ZM294.074,45.331c.003-.988.007-2.037.007-2.037,0-2.884,2.552-5.23,5.688-5.23,1.885,0,3.627.908,4.662,2.316-2.077.992-7.365,3.52-10.357,4.951Z"/><path class="cls-1" d="M186.61,7.923v50.543h-16.514c-4.32,0-6.928,0-6.928,3.607,0,4.832-4.143,8.764-9.236,8.764s-9.234-3.93-9.234-8.762c0-.013.001-.051.001-.051,0,0-.007-.69-.012-1.364,1.851-.886,20.999-10.042,20.999-10.042l.765-.376c2.034-.98,5.438-2.621,5.438-6.983,0-9.522-8.053-17.268-17.952-17.268s-17.974,7.746-17.975,17.268c0,0-.01,12.364-.012,15.207h-13.712v-14.302c.005-.158.029-.904.029-.904,0-9.522-8.057-17.268-17.961-17.268-3.531,0-6.93.999-9.836,2.835-.739-1.376-2.174-2.323-3.84-2.323-2.413,0-4.377,1.963-4.377,4.376v27.477h-13.003v-28.421c0-1.992-1.922-3.552-4.375-3.552s-4.376,1.56-4.376,3.552v28.421h-13.757v-14.195c.005-.158.03-.903.03-.903,0-9.522-8.058-17.268-17.961-17.268-3.495,0-6.866.98-9.756,2.783-.747-1.347-2.166-2.271-3.812-2.271-2.414,0-4.377,1.963-4.377,4.376,0,0,.001,11.721.001,11.75-.003.098-.016.63-.016.63,0,0-.021,11.853-.026,14.677h-6.899c-1.169,0-2.268.455-3.094,1.282-.826.826-1.282,1.926-1.282,3.095,0,2.413,1.963,4.375,4.376,4.375h6.942v31.624c0,1.172.456,2.271,1.281,3.097.827.827,1.926,1.282,3.095,1.282s2.268-.455,3.094-1.282c.826-.826,1.282-1.926,1.282-3.094v-20.961c2.76,1.584,5.921,2.445,9.191,2.445,8.15,0,15.201-5.255,17.315-12.69h14.374v8.891c0,2.416,1.963,4.38,4.376,4.38s4.375-1.963,4.375-4.375v-8.895h13.003v31.203c0,1.172.456,2.271,1.282,3.097.826.827,1.926,1.282,3.095,1.282s2.267-.455,3.094-1.282c.827-.826,1.282-1.926,1.282-3.094v-21.024c2.784,1.626,5.984,2.508,9.3,2.508,8.092,0,15.13-5.21,17.284-12.581h15.065c2.155,7.37,9.193,12.581,17.283,12.581s15.131-5.21,17.284-12.581h15.389v8.132c0,2.421,1.962,4.383,4.375,4.383s4.377-1.962,4.377-4.375v-8.139h14.132v9.398c0,2.421,1.963,4.383,4.376,4.383s4.377-1.962,4.377-4.377v-9.403h13.767v9.398c0,2.421,1.963,4.383,4.376,4.383s4.376-1.962,4.376-4.377v-33.328c.014-4.799,4.161-8.705,9.259-8.705s9.237,3.918,9.237,8.734l.002,33.325c0,2.414,1.965,4.376,4.378,4.376s4.376-1.962,4.376-4.376c0,0-.001-6.915-.001-9.428h14.469c2.154,7.37,9.193,12.581,17.283,12.581,8.152,0,15.202-5.256,17.316-12.692h10.26c1.169,0,2.269-.455,3.095-1.281.826-.827,1.281-1.926,1.281-3.094,0-2.415-1.962-4.378-4.376-4.378h-11.417c-4.172.001-6.929.001-6.929,3.663,0,4.863-4.142,8.819-9.235,8.819s-9.234-3.93-9.235-8.764c0-.004.002-.049.002-.049,0,0-.007-.69-.013-1.364,1.854-.886,21.009-10.042,21.009-10.042l.768-.377c2.032-.98,5.434-2.622,5.434-6.981,0-9.522-8.057-17.268-17.961-17.268s-17.974,7.746-17.974,17.268c0,0-.01,12.364-.013,15.207h-13.765v-15.163c0-9.547-8.07-17.312-17.989-17.312-3.408,0-6.708.926-9.558,2.649-.624-1.654-2.212-2.838-4.082-2.838-2.413,0-4.377,1.962-4.377,4.375v1.317s.001,26.971.001,26.971h-13.767v-28.288c0-2.413-1.963-4.375-4.377-4.375s-4.377,1.962-4.377,4.375c0,0,.001,25.149.001,28.288h-14.132V7.923c0-1.169-.456-2.268-1.282-3.095-.826-.826-1.926-1.281-3.095-1.281-2.413,0-4.375,1.963-4.375,4.376M23.569,43.506c0-4.839,4.143-8.77,9.235-8.77,2.482,0,4.81.922,6.558,2.594,1.726,1.653,2.678,3.845,2.678,6.171l-.02.609v17.602l.02.581c0,4.832-4.143,8.764-9.236,8.764s-9.235-3.931-9.235-8.762c0-.014.001-.052.001-.052,0,0-.021-13.052-.021-13.056,0-.008.02-5.679.02-5.679M95.066,43.506c0-4.839,4.142-8.77,9.234-8.77s9.236,3.931,9.236,8.765l-.02.609v17.602l.02.581c0,4.832-4.143,8.764-9.236,8.764s-9.234-3.931-9.234-8.762v-.052s-.021-13.052-.021-13.056c0-.008.021-5.679.021-5.679M144.698,43.287c0-4.839,4.142-8.77,9.234-8.77,4.689,0,8.538,3.358,9.117,7.665-1.782.852-14.626,6.992-18.372,8.782v-1.996c0-.007.021-5.681.021-5.681M290.533,43.287c0-4.839,4.142-8.77,9.235-8.77,4.689,0,8.538,3.358,9.116,7.665-1.781.85-14.626,6.992-18.372,8.782v-1.996c0-.007.021-5.681.021-5.681"/><path class="cls-1" d="M560.493,63.644v1.421c-.025.042-.064.08-.074.127-.693,3.035-2.664,4.615-5.76,4.615h-8.669v15.326h-14.142v-.735c0-14.764.002-29.529,0-44.292,0-.321-.004-.644-.034-.961-.252-2.653-2.935-4.505-5.506-3.804-2.01.549-3.303,2.329-3.303,4.563-.001,14.85,0,29.698,0,44.547v.686h-15.423v-44.973c0-.219.002-.438-.005-.659-.115-2.897-2.886-4.937-5.632-4.143-1.937.558-3.198,2.321-3.198,4.48-.002,14.866-.001,29.732-.001,44.597v.685h-14.18v-15.286h-13.505v15.283h-12.778v-15.269h-9.014v.701c0,4.681-.009,9.36.01,14.039.002.476-.137.589-.593.588-4.443-.015-8.886-.009-13.33-.01-.176,0-.353-.022-.577-.034v-15.289h-10.548c0,.812.038,1.59-.01,2.362-.075,1.175-.068,2.383-.346,3.517-1.494,6.117-5.474,9.827-11.438,11.516-.935.263-1.917.357-2.878.531h-2.534c-.412-.069-.826-.133-1.237-.204-5.466-.947-9.539-3.799-12.031-8.811-.075-.154-.151-.305-.248-.499-.065.115-.091.157-.113.203-2.178,4.688-5.838,7.573-10.807,8.835-.861.219-1.75.32-2.627.476h-2.535c-.129-.034-.256-.07-.387-.097-1.169-.242-2.382-.358-3.502-.746-5.502-1.91-9.105-5.613-10.448-11.368-.392-1.679-.259-3.392-.278-5.094-.003-.209,0-.419,0-.66h-.698c-3.375,0-6.752.005-10.129-.002-2.578-.005-4.732-1.717-5.33-4.215-.042-.176-.097-.352-.145-.525v-1.421c.029-.059.068-.115.082-.179.61-2.901,2.672-4.576,5.637-4.576,3.311-.001,6.622-.001,9.933-.001h.652V25.225h14.124v.725c0,14.699,0,29.395.003,44.093,0,.437.02.879.078,1.313.225,1.72,1.544,3.203,3.228,3.66,1.693.461,3.465-.141,4.566-1.549.73-.935.984-2.004.984-3.173-.007-14.798-.003-29.597-.003-44.395q0-.705.713-.705c4.681-.001,9.359,0,14.04,0h.685v44.917c0,.287-.004.575.011.861.09,1.777,1.348,3.414,3.053,3.981,1.689.564,3.548.022,4.707-1.382.79-.954,1.075-2.067,1.075-3.294-.01-14.797-.007-29.596-.007-44.395v-.642h14.16v33.609h10.568v-.69c0-6.774.003-13.546-.003-20.321-.001-1.416.211-2.791.685-4.124,1.835-5.161,6.899-8.777,12.564-8.892,3.177-.065,6.353-.03,9.528-.007.772.004,1.553.092,2.314.23,6.107,1.102,11.271,6.194,11.192,13.182-.075,6.655-.015,13.31-.015,19.966v.656h13.52v-.645c0-6.775-.016-13.549.015-20.322.005-1.124.089-2.277.361-3.362,1.471-5.899,5.307-9.552,11.04-11.294,1.057-.323,2.179-.429,3.269-.634h2.434c.413.065.828.125,1.243.196,5.553.938,9.673,3.823,12.155,8.937.053.109.126.21.212.347.065-.119.099-.177.127-.236,2.18-4.642,5.817-7.507,10.751-8.761.876-.224,1.783-.324,2.678-.482h2.533c.129.033.256.069.383.097,1.267.276,2.572.432,3.792.846,6.101,2.068,10.545,7.737,10.446,14.563-.098,6.703-.022,13.409-.022,20.115v.676h.62c2.82.001,5.641-.004,8.461.002,2.348.008,4.394,1.505,5.125,3.741.108.335.192.676.288,1.013M458.281,58.864c.01-.163.022-.278.022-.393.001-6.097.005-12.193-.01-18.29-.001-.498-.087-1.016-.24-1.49-.678-2.097-2.831-3.37-5.028-3.012-2.155.352-3.746,2.172-3.752,4.382-.018,6.164-.005,12.328-.004,18.493,0,.097.015.193.026.31h8.986Z"/></svg>